# File created by Blade
# Date/Time:  Wed Sep 24 20:21:23 2014
# Frame Rate: 120.000 fps
#------------------------------------------------------
:FULLY-SPECIFIED
:DEGREES
841
root -7.837197 33.336616 -5.277397 14.212520 25.232105 37.249968
Spine 11.944781 -19.548912 -40.244356
Head -17.933260 -6.334637 15.995957
LeftShoulder 10.319585 -16.362672 24.195032
LeftArm 75.387491 -79.212489 -102.673069
LeftForeArm -40.655627 -0.000000 21.665554
LeftHand -13.720900 -0.000000 -29.662499
LeftHandThumb1 -26.253704 0.000000 33.147579
RightShoulder -17.772587 21.045591 -30.542370
RightArm -11.026829 4.653052 20.985217
RightForeArm -20.738091 -0.000000 9.156432
RightHand -6.362153 0.000000 11.905529
RightHandThumb1 -24.326973 -0.000000 -32.862282
LeftUpLeg -153.905251 23.788240 -39.435329
LeftLeg 46.725524 -0.000000 -0.000000
LeftFoot 39.041453 28.159485 -14.792122
LeftToeBase 12.028591 -0.000000 -0.000000
RightUpLeg -10.541696 -7.461026 -26.116800
RightLeg 33.663856 -0.000000 -0.000000
RightFoot -19.280979 -33.686612 -4.104672
RightToeBase 0.534617 -0.000000 -0.000000
842
root -7.850358 33.334242 -5.310371 14.298938 25.282367 37.200454
Spine 12.134702 -19.544125 -40.180530
Head -18.383491 -6.368746 16.068801
LeftShoulder 10.402509 -16.120204 23.967208
LeftArm 71.281407 -78.920089 -98.904372
LeftForeArm -40.952224 -0.000000 21.295756
LeftHand -13.661234 0.000000 -29.640656
LeftHandThumb1 -26.253704 0.000000 33.147579
RightShoulder -17.816155 20.955476 -30.516625
RightArm -10.876060 4.688932 21.106922
RightForeArm -20.718361 -0.000000 9.111779
RightHand -6.494145 -0.000000 11.887034
RightHandThumb1 -24.326973 -0.000000 -32.862282
LeftUpLeg -153.686743 23.715898 -39.312018
LeftLeg 47.830976 -0.000000 -0.000000
LeftFoot 39.020255 28.267253 -15.035990
LeftToeBase 12.230127 -0.000000 -0.000000
RightUpLeg -10.685072 -7.486231 -26.052055
RightLeg 33.683040 -0.000000 -0.000000
RightFoot -19.192697 -33.694383 -4.253797
RightToeBase 0.625271 -0.000000 -0.000000
843
root -7.851674 33.340416 -5.337754 14.359686 25.295113 37.271625
Spine 12.361540 -19.473701 -40.282685
Head -18.739641 -6.393550 16.176105
LeftShoulder 10.505360 -15.851443 23.777028
LeftArm 67.249510 -78.557991 -95.260743
LeftForeArm -41.329465 -0.000000 21.005753
LeftHand -13.615414 -0.000000 -29.353222
LeftHandThumb1 -26.253704 0.000000 33.147579
RightShoulder -17.834665 20.956570 -30.543119
RightArm -10.876294 4.566862 21.247411
RightForeArm -20.628514 -0.000000 9.120393
RightHand -6.336725 0.000000 11.945407
RightHandThumb1 -24.326973 -0.000000 -32.862282
LeftUpLeg -153.577218 23.540461 -39.457415
LeftLeg 49.189121 -0.000000 -0.000000
LeftFoot 39.033124 28.061555 -14.802422
LeftToeBase 11.033695 -0.000000 -0.000000
RightUpLeg -10.743195 -7.573711 -26.129665
RightLeg 33.661033 -0.000000 -0.000000
RightFoot -19.142924 -33.676931 -4.253592
RightToeBase 0.602912 -0.000000 -0.000000
844
root -7.859438 33.342468 -5.365869 14.411194 25.336303 37.282900
Spine 12.574011 -19.441621 -40.287191
Head -19.065654 -6.456090 16.129208
LeftShoulder 10.603141 -15.469168 23.517869
LeftArm 63.307526 -78.102168 -91.616198
LeftForeArm -41.764296 -0.000000 20.672213
LeftHand -13.536631 0.000000 -29.329621
LeftHandThumb1 -26.253704 0.000000 33.147579
RightShoulder -17.861895 20.972627 -30.558000
RightArm -10.803216 4.617815 21.326104
RightForeArm -20.723327 -0.000000 9.130091
RightHand -6.479925 -0.000000 11.929144
RightHandThumb1 -24.326973 -0.000000 -32.862282
LeftUpLeg -153.354504 23.411989 -39.443865
LeftLeg 50.409297 -0.000000 -0.000000
LeftFoot 39.042083 28.044320 -14.563495
LeftToeBase 11.229563 -0.000000 -0.000000
RightUpLeg -10.813687 -7.602243 -26.130992
RightLeg 33.656469 -0.000000 -0.000000
RightFoot -19.080943 -33.681343 -4.309092
RightToeBase 0.640745 -0.000000 -0.000000
845
root -7.865896 33.346125 -5.389764 14.452558 25.365620 37.295829
Spine 12.778171 -19.426446 -40.333694
Head -19.354489 -6.507009 16.171414
LeftShoulder 10.652238 -15.054417 23.282892
LeftArm 60.206462 -77.580591 -88.772343
LeftForeArm -41.984079 -0.000000 20.276615
LeftHand -13.647934 -0.000000 -29.127427
LeftHandThumb1 -26.253704 0.000000 33.147579
RightShoulder -17.814975 20.964720 -30.550112
RightArm -10.830801 4.509403 21.452367
RightForeArm -20.618388 -0.000000 9.237227
RightHand -6.458363 -0.000000 11.866029
RightHandThumb1 -24.326973 -0.000000 -32.862282
LeftUpLeg -153.133452 23.304643 -39.447609
LeftLeg 51.664091 -0.000000 -0.000000
LeftFoot 38.962768 28.028429 -14.421290
LeftToeBase 11.270399 -0.000000 -0.000000
RightUpLeg -10.860608 -7.616531 -26.137452
RightLeg 33.621352 -0.000000 -0.000000
RightFoot -18.974818 -33.704036 -4.410484
RightToeBase 0.587421 -0.000000 -0.000000
846
root -7.870416 33.351252 -5.411134 14.481916 25.383140 37.340224
Spine 13.000075 -19.350166 -40.422534
Head -19.666164 -6.607405 16.229341
LeftShoulder 10.795713 -14.938470 23.058838
LeftArm 56.458062 -77.101258 -85.388781
LeftForeArm -42.332544 -0.000000 19.802787
LeftHand -13.591170 0.000000 -29.321299
LeftHandThumb1 -26.253704 0.000000 33.147579
RightShoulder -17.836460 20.964576 -30.589916
RightArm -10.817610 4.453813 21.597452
RightForeArm -20.629322 0.000000 9.259441
RightHand -6.407211 -0.000000 11.836209
RightHandThumb1 -24.326973 -0.000000 -32.862282
LeftUpLeg -152.938860 23.166392 -39.542222
LeftLeg 52.954275 -0.000000 -0.000000
LeftFoot 39.035525 27.944586 -14.064999
LeftToeBase 11.315122 -0.000000 -0.000000
RightUpLeg -10.873116 -7.612612 -26.181018
RightLeg 33.576810 -0.000000 -0.000000
RightFoot -18.880595 -33.733086 -4.512083
RightToeBase 0.621205 -0.000000 -0.000000
847
root -7.878208 33.352515 -5.434564 14.511412 25.412023 37.345391
Spine 13.220261 -19.288113 -40.464456
Head -20.009715 -6.721195 16.254714
LeftShoulder 10.894926 -14.747735 22.807910
LeftArm 53.172329 -76.484254 -82.356464
LeftForeArm -42.722888 -0.000000 19.241925
LeftHand -13.613700 -0.000000 -29.394550
LeftHandThumb1 -26.253704 0.000000 33.147579
RightShoulder -17.868991 20.984120 -30.646004
RightArm -10.811020 4.466511 21.716611
RightForeArm -20.717735 -0.000000 9.313214
RightHand -6.447539 -0.000000 11.941460
RightHandThumb1 -24.326973 -0.000000 -32.862282
LeftUpLeg -152.740057 23.003145 -39.603898
LeftLeg 54.206888 -0.000000 -0.000000
LeftFoot 39.047389 28.042196 -13.908360
LeftToeBase 11.800178 -0.000000 -0.000000
RightUpLeg -10.912098 -7.574231 -26.176063
RightLeg 33.562186 -0.000000 -0.000000
RightFoot -18.677197 -33.881489 -4.739789
RightToeBase 0.498092 -0.000000 -0.000000
848
root -7.888790 33.352419 -5.460852 14.570877 25.434680 37.346175
Spine 13.417091 -19.217866 -40.480200
Head -20.423073 -6.864117 16.246377
LeftShoulder 10.987971 -14.649101 22.568688
LeftArm 49.974542 -75.758194 -79.453235
LeftForeArm -43.273360 -0.000000 18.613409
LeftHand -13.361979 0.000000 -29.347335
LeftHandThumb1 -26.253704 0.000000 33.147579
RightShoulder -17.922310 20.946803 -30.712529
RightArm -10.803320 4.465987 21.846115
RightForeArm -20.743525 -0.000000 9.358636
RightHand -6.438443 -0.000000 11.996962
RightHandThumb1 -24.326973 -0.000000 -32.862282
LeftUpLeg -152.464475 22.922215 -39.570722
LeftLeg 55.393443 -0.000000 -0.000000
LeftFoot 39.123881 27.988057 -13.911301
LeftToeBase 11.497928 -0.000000 -0.000000
RightUpLeg -11.003372 -7.574144 -26.158232
RightLeg 33.537880 -0.000000 -0.000000
RightFoot -18.728388 -33.854442 -4.650960
RightToeBase 0.656442 -0.000000 -0.000000
849
root -7.896645 33.353282 -5.485781 14.608678 25.464856 37.365924
Spine 13.663881 -19.127739 -40.531151
Head -20.864099 -6.981986 16.259576
LeftShoulder 11.144098 -14.736288 22.336292
LeftArm 46.941960 -75.156845 -76.813088
LeftForeArm -43.579340 -0.000000 18.028386
LeftHand -13.385806 0.000000 -29.589576
LeftHandThumb1 -26.253704 0.000000 33.147579
RightShoulder -18.009251 20.871838 -30.810411
RightArm -10.776985 4.461741 22.015051
RightForeArm -20.780908 0.000000 9.373634
RightHand -6.343516 0.000000 12.105835
RightHandThumb1 -24.326973 -0.000000 -32.862282
LeftUpLeg -152.149687 22.971450 -39.484358
LeftLeg 56.602582 -0.000000 -0.000000
LeftFoot 39.241963 27.691424 -14.234345
LeftToeBase 11.323153 -0.000000 -0.000000
RightUpLeg -11.047498 -7.592612 -26.166867
RightLeg 33.510455 -0.000000 -0.000000
RightFoot -18.675429 -33.875726 -4.733427
RightToeBase 0.715549 -0.000000 -0.000000
850
root -7.904178 33.353282 -5.509520 14.631645 25.478377 37.368790
Spine 13.912846 -19.044039 -40.581756
Head -21.330532 -7.034819 16.294514
LeftShoulder 11.160777 -14.516138 22.091705
LeftArm 44.551955 -74.235104 -74.602069
LeftForeArm -44.195580 -0.000000 17.365566
LeftHand -13.094680 -0.000000 -29.471563
LeftHandThumb1 -26.253704 0.000000 33.147579
RightShoulder -18.068005 20.928138 -30.885275
RightArm -10.789799 4.216137 22.132172
RightForeArm -20.672542 -0.000000 9.400267
RightHand -6.362383 -0.000000 12.200732
RightHandThumb1 -24.326973 -0.000000 -32.862282
LeftUpLeg -151.884410 22.906607 -39.478837
LeftLeg 57.843139 -0.000000 -0.000000
LeftFoot 39.070985 27.719551 -14.367042
LeftToeBase 11.935382 -0.000000 -0.000000
RightUpLeg -11.091936 -7.576147 -26.162866
RightLeg 33.479253 -0.000000 -0.000000
RightFoot -18.573434 -33.935070 -4.872491
RightToeBase 0.742658 -0.000000 -0.000000
851
root -7.910623 33.355355 -5.532583 14.643223 25.444786 37.393908
Spine 14.155416 -18.945772 -40.673316
Head -21.782561 -7.074819 16.283964
LeftShoulder 11.264749 -14.510155 21.911450
LeftArm 41.868305 -73.461582 -72.286714
LeftForeArm -44.795217 0.000000 16.770582
LeftHand -13.068249 0.000000 -29.501567
LeftHandThumb1 -26.253704 0.000000 33.147579
RightShoulder -18.063371 20.935199 -30.945772
RightArm -10.804317 4.276346 22.231686
RightForeArm -20.729054 -0.000000 9.362355
RightHand -6.323622 -0.000000 12.291462
RightHandThumb1 -24.326973 -0.000000 -32.862282
LeftUpLeg -151.625705 22.887905 -39.508716
LeftLeg 59.083603 -0.000000 -0.000000
LeftFoot 39.099722 27.676591 -14.239627
LeftToeBase 11.443641 -0.000000 -0.000000
RightUpLeg -11.140392 -7.520834 -26.192548
RightLeg 33.457649 -0.000000 -0.000000
RightFoot -18.494101 -33.993080 -5.000663
RightToeBase 0.802633 -0.000000 -0.000000
